<svg xmlns="http://www.w3.org/2000/svg" viewBox="0 0 1568.4 221.8" width="1568.4" height="221.8"><g transform="translate(46,46)"><g transform="scale(1.2984479999999998)"><circle cx="85" cy="25" r="16" fill="#F2B544" opacity="0.16"/><line x1="20" y1="78" x2="45" y2="57" stroke="#34E0C4" stroke-width="2.6" stroke-linecap="round" opacity="0.85"/><line x1="45" y1="57" x2="37" y2="30" stroke="#34E0C4" stroke-width="2.6" stroke-linecap="round" opacity="0.85"/><line x1="45" y1="57" x2="69" y2="52" stroke="#34E0C4" stroke-width="2.6" stroke-linecap="round" opacity="0.85"/><line x1="37" y1="30" x2="69" y2="52" stroke="#34E0C4" stroke-width="2.6" stroke-linecap="round" opacity="0.85"/><line x1="69" y1="52" x2="85" y2="25" stroke="#34E0C4" stroke-width="2.6" stroke-linecap="round" opacity="0.85"/><line x1="37" y1="30" x2="85" y2="25" stroke="#34E0C4" stroke-width="2.6" stroke-linecap="round" opacity="0.85"/><circle cx="20" cy="78" r="4.8" fill="#34E0C4"/><circle cx="45" cy="57" r="6.5" fill="#34E0C4"/><circle cx="37" cy="30" r="4.8" fill="#34E0C4"/><circle cx="69" cy="52" r="5.4" fill="#34E0C4"/><circle cx="85" cy="25" r="7.5" fill="#F2B544"/></g></g><g transform="translate(209.79,154.84) scale(0.12000,-0.12000)"><g transform="translate(0.0,0)"><path d="M85 640H335V0H85Z" fill="#070B12"/></g><g transform="translate(420.0,0)"><path d="M45 490H285V0H45ZM645 505Q704 505 759.0 492.5Q814 480 857.5 450.0Q901 420 927.0 368.0Q953 316 953 237V0H713V207Q713 282 674.0 313.5Q635 345 533 345Q479 345 428.5 333.0Q378 321 338.0 304.5Q298 288 275 272L273 310Q277 328 300.5 360.5Q324 393 369.0 426.0Q414 459 482.5 482.0Q551 505 645 505Z" fill="#070B12"/></g><g transform="translate(1728.0,0)"><path d="M302 165V340H801Q831 340 851.5 349.5Q872 359 872 389.9836065573771Q872 422 851.5 431.0Q831 440 801 440H318V0H68V640H762Q837.3658536585366 640 902.6829268292684 629.5Q968 619 1017.0 592.0Q1066 565 1094.0 516.0Q1122 467 1122 390Q1122 313 1094.0 268.0Q1066 223 1017.0 201.0Q968 179 902.6829268292684 172.0Q837.3658536585366 165 762 165Z" fill="#070B12"/></g><g transform="translate(2905.0,0)"><path d="M45 490H285V0H45ZM543 305Q478 305 424.0 293.0Q370 281 332.0 264.5Q294 248 275 232L273 280Q276 301 289.0 329.5Q302 358 324.0 388.5Q346 419 378.0 445.5Q410 472 451.5 488.5Q493 505 543 505Z" fill="#070B12"/></g><g transform="translate(3468.0,0)"><path d="M408 -14Q300 -14 216.0 16.5Q132 47 83.5 105.0Q35 163 35 245Q35 331 83.5 389.0Q132 447 216.0 476.0Q300 505 408 505Q528 505 615.5 472.5Q703 440 750.5 381.5Q798 323 798 245Q798 187 771.0 139.5Q744 92 693.0 57.5Q642 23 570.0 4.5Q498 -14 408 -14ZM498 138Q574 138 637.5 147.5Q701 157 739.5 180.0Q778 203 778 245Q778 288 739.5 311.0Q701 334 637.5 343.0Q574 352 498 352Q396 352 340.0 325.5Q284 299 284 245Q284 210 309.0 186.0Q334 162 382.0 150.0Q430 138 498 138ZM778 490H1018V0H792Q792 0 788.5 23.0Q785 46 781.5 89.0Q778 132 778 190Z" fill="#070B12"/></g><g transform="translate(4531.0,0)"><path d="M950 490 550 202 304 0H10L416 300L656 490ZM10 490H304L556 307L970 0H676L413 191Z" fill="#070B12"/></g><g transform="translate(5511.0,0)"><path d="M309 747V597H55V747ZM62 490H302V0H62Z" fill="#070B12"/></g><g transform="translate(5875.0,0)"><path d="M40 176H261Q275 150 314.5 140.0Q354 130 428 130Q485 130 512.5 136.0Q540 142 548.5 152.0Q557 162 557 173Q557 190 538.5 196.5Q520 203 476.0 204.5Q432 206 355 206Q282 206 224.5 212.5Q167 219 127.0 233.5Q87 248 66.0 274.0Q45 300 45 339Q45 387 76.0 419.5Q107 452 160.0 470.5Q213 489 282.5 497.0Q352 505 428 505Q554 505 634.0 479.5Q714 454 752.0 411.0Q790 368 789 314H574Q563 340 532.5 350.0Q502 360 428 360Q358 360 326.5 349.5Q295 339 295 316Q295 301 310.5 293.5Q326 286 369.5 283.0Q413 280 497 280Q555 280 610.5 276.0Q666 272 710.5 259.0Q755 246 781.0 219.0Q807 192 807 145Q807 88 760.5 52.5Q714 17 629.0 1.0Q544 -15 428 -15Q327 -15 257.5 -2.0Q188 11 144.0 32.5Q100 54 76.5 79.5Q53 105 45.5 130.5Q38 156 40 176Z" fill="#070B12"/></g><g transform="translate(7027.0,0)"><path d="M320 640V190H903V0H70V640Z" fill="#16B89C"/></g><g transform="translate(7970.0,0)"><path d="M408 -14Q300 -14 216.0 16.5Q132 47 83.5 105.0Q35 163 35 245Q35 331 83.5 389.0Q132 447 216.0 476.0Q300 505 408 505Q528 505 615.5 472.5Q703 440 750.5 381.5Q798 323 798 245Q798 187 771.0 139.5Q744 92 693.0 57.5Q642 23 570.0 4.5Q498 -14 408 -14ZM498 138Q574 138 637.5 147.5Q701 157 739.5 180.0Q778 203 778 245Q778 288 739.5 311.0Q701 334 637.5 343.0Q574 352 498 352Q396 352 340.0 325.5Q284 299 284 245Q284 210 309.0 186.0Q334 162 382.0 150.0Q430 138 498 138ZM778 490H1018V0H792Q792 0 788.5 23.0Q785 46 781.5 89.0Q778 132 778 190Z" fill="#16B89C"/></g><g transform="translate(9033.0,0)"><path d="M690 -14Q600 -14 528.0 4.5Q456 23 405.0 57.5Q354 92 327.0 139.5Q300 187 300 245Q300 303 327.0 351.0Q354 399 405.0 433.5Q456 468 528.0 486.5Q600 505 690 505Q798 505 882.5 476.0Q967 447 1015.0 389.0Q1063 331 1063 245Q1063 163 1015.0 105.0Q967 47 882.5 16.5Q798 -14 690 -14ZM600 138Q668 138 716.0 150.0Q764 162 789.0 186.0Q814 210 814 245Q814 299 758.0 325.5Q702 352 600 352Q524 352 460.5 343.0Q397 334 358.5 311.0Q320 288 320 245Q320 203 358.5 180.0Q397 157 460.5 147.5Q524 138 600 138ZM320 690V190Q320 126 315.5 74.5Q311 23 306 0H80V690Z" fill="#16B89C"/></g><g transform="translate(10131.0,0)"><path d="M40 176H261Q275 150 314.5 140.0Q354 130 428 130Q485 130 512.5 136.0Q540 142 548.5 152.0Q557 162 557 173Q557 190 538.5 196.5Q520 203 476.0 204.5Q432 206 355 206Q282 206 224.5 212.5Q167 219 127.0 233.5Q87 248 66.0 274.0Q45 300 45 339Q45 387 76.0 419.5Q107 452 160.0 470.5Q213 489 282.5 497.0Q352 505 428 505Q554 505 634.0 479.5Q714 454 752.0 411.0Q790 368 789 314H574Q563 340 532.5 350.0Q502 360 428 360Q358 360 326.5 349.5Q295 339 295 316Q295 301 310.5 293.5Q326 286 369.5 283.0Q413 280 497 280Q555 280 610.5 276.0Q666 272 710.5 259.0Q755 246 781.0 219.0Q807 192 807 145Q807 88 760.5 52.5Q714 17 629.0 1.0Q544 -15 428 -15Q327 -15 257.5 -2.0Q188 11 144.0 32.5Q100 54 76.5 79.5Q53 105 45.5 130.5Q38 156 40 176Z" fill="#16B89C"/></g></g></svg>